<?xml version="1.0" standalone="no"?>
<!DOCTYPE svg PUBLIC "-//W3C//DTD SVG 20010904//EN"
 "http://www.w3.org/TR/2001/REC-SVG-20010904/DTD/svg10.dtd">
<svg version="1.0" xmlns="http://www.w3.org/2000/svg"
 width="300.000000pt" height="300.000000pt" viewBox="0 0 300.000000 300.000000"
 preserveAspectRatio="xMidYMid meet">
<metadata>
Created by potrace 1.10, written by Peter Selinger 2001-2011
</metadata>
<g transform="translate(0.000000,300.000000) scale(0.100000,-0.100000)"
fill="#000000" stroke="none">
<path d="M1284 2597 c-3 -9 2 -27 12 -42 17 -26 17 -27 -9 -53 -27 -26 -27
-26 -27 -4 0 27 -38 68 -51 55 -13 -13 3 -53 30 -77 12 -11 21 -31 21 -48 l0
-29 -23 27 c-14 16 -29 24 -35 20 -17 -11 3 -43 40 -66 17 -10 37 -33 44 -50
l13 -31 -28 21 c-31 21 -51 26 -51 11 0 -12 46 -48 71 -56 25 -8 24 -36 -2
-69 -11 -14 -16 -26 -10 -26 15 0 41 41 41 65 0 12 -11 55 -25 95 -14 40 -25
84 -25 96 0 26 45 84 65 84 8 0 17 5 21 12 5 7 2 9 -9 5 -12 -5 -17 2 -19 31
-3 39 -33 58 -44 29z"/>
<path d="M1762 2598 c-7 -7 -12 -25 -12 -40 0 -15 -5 -28 -10 -28 -6 0 4 -13
22 -29 37 -33 52 -33 23 -1 -16 17 -17 25 -7 40 13 22 16 70 4 70 -4 0 -13 -5
-20 -12z"/>
<path d="M1825 2526 c-9 -13 -18 -48 -21 -77 -4 -30 -15 -83 -25 -118 -24 -80
-24 -113 1 -142 22 -28 27 -14 5 15 -23 30 -18 54 15 71 31 16 56 50 42 59 -5
3 -18 -4 -30 -14 -29 -27 -33 -25 -20 10 5 17 23 37 38 45 28 15 48 50 35 63
-4 4 -18 -6 -31 -21 l-24 -28 0 27 c0 15 11 42 25 60 25 33 34 74 15 74 -5 0
-17 -11 -25 -24z"/>
<path d="M1530 2480 c0 -23 25 -27 33 -6 7 16 -1 26 -20 26 -7 0 -13 -9 -13
-20z"/>
<path d="M1486 2471 c-8 -12 21 -34 34 -26 8 5 8 11 -1 21 -13 16 -25 18 -33
5z"/>
<path d="M1581 2466 c-9 -10 -9 -16 -1 -21 12 -7 40 11 40 26 0 14 -26 10 -39
-5z"/>
<path d="M1037 2434 c-14 -15 -7 -42 11 -40 9 2 17 11 17 21 0 19 -17 30 -28
19z"/>
<path d="M1533 2424 c-7 -18 17 -38 31 -24 11 11 1 40 -14 40 -6 0 -13 -7 -17
-16z"/>
<path d="M1474 2419 c-3 -6 -2 -15 4 -21 13 -13 32 -2 32 18 0 16 -26 19 -36
3z"/>
<path d="M1987 2424 c-9 -10 4 -34 19 -34 8 0 14 9 14 20 0 19 -19 27 -33 14z"/>
<path d="M974 2408 c-9 -15 27 -41 40 -28 6 6 5 15 -4 25 -15 18 -26 19 -36 3z"/>
<path d="M1083 2395 c-3 -9 -3 -19 1 -22 8 -9 37 18 30 28 -8 14 -24 11 -31
-6z"/>
<path d="M2041 2396 c-8 -10 -9 -16 -1 -21 13 -8 30 3 30 21 0 18 -14 18 -29
0z"/>
<path d="M1372 2388 c-23 -23 -12 -47 48 -99 64 -57 77 -79 89 -155 l9 -49 1
46 c2 70 -15 102 -80 159 -41 36 -59 58 -57 72 3 21 20 26 27 7 2 -7 -1 -9 -8
-5 -6 4 -11 2 -11 -3 0 -14 27 -14 35 -1 8 13 -12 40 -29 40 -7 0 -17 -5 -24
-12z"/>
<path d="M1677 2389 c-19 -11 -23 -34 -7 -44 6 -3 15 -3 21 1 8 4 7 9 -2 15
-7 4 -10 11 -7 14 10 10 28 -4 28 -20 0 -8 -25 -38 -55 -67 -30 -28 -59 -65
-64 -82 -15 -51 -20 -105 -10 -111 5 -4 9 10 9 30 0 55 26 106 80 156 35 32
50 54 50 71 0 33 -19 50 -43 37z"/>
<path d="M1501 2376 c-8 -10 -9 -16 -1 -21 13 -8 30 3 30 21 0 18 -14 18 -29
0z"/>
<path d="M1563 2377 c-24 -12 -30 -32 -12 -42 6 -4 13 2 15 12 4 15 12 19 31
15 19 -4 24 -1 21 9 -6 18 -27 20 -55 6z"/>
<path d="M967 2364 c-13 -13 -7 -34 10 -34 13 0 14 -3 5 -12 -18 -18 -15 -28
8 -28 21 0 28 24 10 35 -6 4 -9 14 -8 22 3 17 -14 28 -25 17z"/>
<path d="M1025 2361 c-9 -16 3 -31 26 -31 14 0 19 6 17 17 -4 20 -33 29 -43
14z"/>
<path d="M1991 2357 c-14 -17 3 -41 23 -34 9 4 16 13 16 21 0 19 -26 28 -39
13z"/>
<path d="M1090 2346 c0 -19 26 -27 39 -12 13 15 4 26 -21 26 -10 0 -18 -6 -18
-14z"/>
<path d="M1937 2353 c-13 -12 -7 -33 8 -33 8 0 15 9 15 20 0 20 -11 26 -23 13z"/>
<path d="M2050 2346 c0 -10 9 -16 21 -16 24 0 21 23 -4 28 -10 2 -17 -3 -17
-12z"/>
<path d="M1070 2305 c0 -9 10 -19 23 -24 13 -5 29 -17 37 -26 12 -15 12 -17
-5 -15 -34 4 -46 0 -39 -11 4 -6 20 -9 39 -6 27 4 38 0 61 -24 15 -16 32 -29
38 -29 5 0 -2 13 -17 28 -15 15 -27 38 -27 49 0 28 -10 53 -21 53 -5 0 -9 -10
-9 -22 -1 -22 -2 -21 -30 10 -32 35 -50 41 -50 17z"/>
<path d="M2036 2311 c-7 -10 22 -37 30 -28 9 8 -3 37 -15 37 -5 0 -12 -4 -15
-9z"/>
<path d="M1024 2297 c-6 -17 2 -37 16 -37 15 0 19 29 5 40 -12 10 -16 9 -21
-3z"/>
<path d="M1942 2280 c-28 -37 -17 -39 21 -5 30 29 33 35 14 35 -7 0 -23 -13
-35 -30z"/>
<path d="M2000 2281 c0 -12 6 -21 16 -21 9 0 14 7 12 17 -5 25 -28 28 -28 4z"/>
<path d="M1890 2258 c0 -21 -9 -41 -27 -60 -15 -15 -22 -28 -17 -28 6 0 21 11
34 25 17 18 33 25 54 23 16 -2 31 2 33 9 2 7 -8 13 -24 15 -20 2 -29 9 -31 26
-5 34 -22 26 -22 -10z"/>
<path d="M1353 2244 c-3 -8 -1 -20 6 -27 8 -8 11 -8 11 1 0 10 5 10 20 2 26
-14 50 -51 72 -114 18 -49 19 -49 13 -11 -4 22 -16 62 -27 88 -29 66 -80 100
-95 61z"/>
<path d="M1683 2238 c-29 -32 -50 -77 -58 -123 -6 -37 -5 -36 18 18 32 74 45
89 69 81 16 -5 19 -2 16 17 -4 31 -20 34 -45 7z"/>
<path d="M850 2235 c0 -9 11 -21 25 -27 32 -14 32 -24 -2 -31 -16 -3 -38 3
-57 14 -38 23 -58 24 -54 2 2 -9 18 -21 36 -27 18 -6 30 -15 26 -19 -4 -4 -2
-7 4 -7 6 0 13 4 17 10 8 12 75 31 87 24 5 -3 2 -14 -6 -23 -9 -10 -21 -31
-27 -49 -16 -47 -69 -56 -69 -11 0 10 7 19 15 19 9 0 12 -6 9 -15 -4 -8 -2
-15 4 -15 16 0 22 28 8 39 -16 14 -42 5 -50 -15 -9 -24 12 -54 38 -54 26 0 45
19 69 73 9 21 23 40 30 43 8 3 56 -16 107 -41 93 -45 114 -51 144 -39 30 12
16 19 -29 16 -43 -4 -46 -3 -60 31 -15 37 -32 54 -42 43 -4 -3 -1 -17 5 -32
l12 -25 -30 18 c-16 9 -30 23 -30 30 0 21 -46 67 -59 59 -9 -6 -6 -15 11 -34
19 -21 20 -24 5 -19 -10 4 -23 7 -27 7 -5 0 -25 16 -44 35 -37 37 -66 45 -66
20z"/>
<path d="M2127 2210 c-14 -16 -38 -32 -53 -36 -27 -7 -28 -7 -11 10 21 21 22
36 2 36 -8 0 -24 -18 -35 -40 -11 -21 -29 -44 -41 -50 -19 -11 -20 -10 -9 10
13 25 8 35 -14 27 -8 -3 -17 -19 -21 -36 -7 -34 -37 -48 -76 -36 -14 5 -19 4
-15 -4 14 -22 70 -10 141 28 89 49 132 58 174 37 17 -9 31 -12 31 -7 0 5 12
11 27 13 17 2 29 10 31 21 5 23 -30 23 -52 -2 -14 -16 -22 -17 -46 -8 l-29 11
30 18 c16 10 29 22 29 28 0 21 -39 9 -63 -20z"/>
<path d="M1373 2158 c33 -45 99 -177 94 -191 -2 -6 -31 25 -64 69 -72 94 -80
102 -121 110 -34 7 -40 -2 -22 -37 14 -25 30 -24 30 1 0 34 16 23 79 -55 34
-41 56 -75 50 -75 -5 0 -7 -4 -4 -10 9 -14 1 -13 -67 15 -70 28 -68 28 -68 16
0 -10 92 -45 163 -62 26 -6 47 -12 47 -14 0 -1 -5 -16 -11 -34 -16 -46 -40
-55 -94 -36 -53 18 -65 19 -65 5 0 -5 15 -14 33 -19 l32 -9 -43 -1 c-30 -1
-52 5 -69 19 -26 21 -53 26 -53 12 0 -5 12 -15 28 -23 l27 -13 -33 -4 c-19 -2
-47 1 -64 7 -17 6 -37 11 -44 11 -20 0 -17 -18 4 -22 11 -3 -1 -12 -35 -27
-28 -13 -54 -29 -57 -37 -9 -25 29 -16 69 16 21 17 41 30 46 30 4 0 16 3 26 7
14 5 13 1 -6 -20 -14 -15 -21 -30 -17 -34 4 -5 21 7 37 25 22 24 37 32 61 31
18 0 26 -3 18 -6 -20 -7 -50 -34 -50 -45 0 -19 44 -6 72 22 19 20 44 32 71 36
l42 6 -32 -30 c-35 -33 -42 -52 -19 -52 17 0 56 47 56 67 0 7 11 18 24 23 40
15 60 54 52 103 -8 46 -72 186 -106 230 -30 38 -46 34 -17 -5z"/>
<path d="M1677 2126 c-44 -76 -77 -172 -77 -222 0 -29 7 -44 35 -70 19 -18 35
-37 35 -42 0 -13 40 -62 51 -62 17 0 9 24 -18 52 l-27 28 35 0 c26 0 42 -9 68
-35 19 -19 37 -35 42 -35 21 0 17 21 -8 44 l-28 26 26 0 c19 0 35 -11 53 -35
15 -20 32 -33 37 -29 6 4 1 16 -12 30 -12 13 -17 24 -10 24 19 0 64 -26 85
-49 19 -21 46 -28 46 -13 0 13 -32 37 -68 52 -30 12 -31 14 -15 26 17 12 16
13 -5 14 -13 0 -31 -4 -40 -8 -9 -5 -33 -5 -52 -1 -19 3 -28 7 -19 8 9 0 22 8
29 16 19 23 -12 20 -43 -5 -14 -11 -40 -20 -59 -20 l-33 1 30 17 c29 16 29 17
7 20 -13 2 -34 -4 -48 -13 -30 -19 -60 -7 -74 31 -17 42 -12 50 38 62 58 13
151 54 136 59 -6 2 -37 -8 -69 -22 -32 -14 -59 -25 -60 -25 -6 0 2 30 10 37 4
4 5 2 1 -4 -4 -7 -3 -13 2 -13 13 0 102 71 102 81 0 17 -14 9 -52 -28 -47 -46
-61 -37 -21 14 45 57 66 93 56 93 -5 0 -38 -41 -72 -91 -35 -49 -65 -88 -67
-86 -8 7 45 132 76 181 16 25 26 48 21 50 -4 3 -24 -23 -44 -58z"/>
<path d="M2100 2157 c0 -4 27 -63 39 -86 16 -32 40 -37 63 -13 18 18 20 26 12
40 -14 22 -48 22 -52 0 -2 -12 3 -18 15 -18 15 0 15 2 3 10 -8 5 -11 12 -8 15
11 11 28 -5 28 -26 0 -15 -6 -20 -22 -17 -16 2 -30 18 -45 51 -19 39 -33 58
-33 44z"/>
<path d="M1794 2144 c-6 -2 -8 -18 -6 -35 4 -27 5 -28 18 -12 14 19 19 54 7
52 -5 0 -13 -3 -19 -5z"/>
<path d="M959 2099 c-16 -16 -18 -23 -9 -29 10 -6 9 -9 -4 -11 -15 -4 -15 -6
-2 -24 14 -19 15 -19 35 -1 20 18 47 18 109 0 9 -3 -7 6 -35 20 -29 14 -53 32
-53 40 0 25 -18 28 -41 5z"/>
<path d="M2051 2097 c-7 -19 -25 -34 -51 -45 -43 -18 -56 -38 -14 -22 37 14
70 12 84 -5 19 -23 26 -18 28 18 1 19 -6 42 -17 57 l-20 25 -10 -28z"/>
<path d="M1227 2064 c-9 -9 9 -40 26 -47 10 -4 14 3 15 24 0 21 -4 29 -17 29
-10 0 -21 -3 -24 -6z"/>
<path d="M1300 2062 c0 -11 36 -44 73 -67 49 -31 38 -11 -19 33 -29 23 -54 38
-54 34z"/>
<path d="M734 2048 c-8 -12 13 -28 37 -28 9 0 44 -27 78 -60 60 -58 61 -60 39
-69 -13 -5 -32 -18 -42 -30 -17 -19 -17 -21 -2 -21 30 0 84 28 95 49 10 18 8
21 -13 27 -14 3 -47 29 -74 57 -72 75 -105 97 -118 75z"/>
<path d="M1805 2035 c0 -30 6 -31 28 -7 18 20 13 32 -12 32 -10 0 -16 -9 -16
-25z"/>
<path d="M1152 2038 c-7 -7 -12 -19 -12 -28 0 -17 41 -59 75 -78 17 -10 15
-11 -20 -12 -30 0 -43 5 -53 21 -14 21 -99 65 -109 55 -12 -12 29 -56 60 -65
l32 -9 -32 -1 c-17 -1 -38 -8 -47 -16 -8 -8 -19 -15 -24 -15 -4 0 -19 -11 -32
-25 -21 -22 -21 -25 -5 -25 37 0 98 25 111 45 13 21 23 22 146 24 73 1 134 4
137 7 2 2 -25 4 -61 4 -54 0 -72 5 -104 26 -21 15 -42 32 -46 38 -13 20 -9 46
8 46 10 0 14 -6 10 -15 -6 -17 9 -21 19 -5 8 13 -12 40 -29 40 -7 0 -17 -5
-24 -12z"/>
<path d="M2191 1980 c-57 -63 -67 -70 -100 -69 l-36 1 31 9 c31 9 72 45 62 55
-12 12 -88 -18 -106 -41 -17 -21 -28 -25 -68 -24 l-49 1 33 11 c38 12 85 67
57 67 -28 0 -93 -39 -100 -60 -5 -15 -15 -20 -41 -20 l-34 0 40 37 c31 27 40
43 38 62 -2 20 -9 26 -28 26 -18 0 -25 -5 -25 -19 0 -11 7 -22 15 -24 13 -4
13 -3 2 10 -16 19 3 37 21 19 16 -16 -10 -57 -52 -83 -28 -18 -49 -22 -106
-21 -49 1 -63 -1 -45 -7 14 -4 74 -8 134 -9 102 -1 110 -3 131 -25 21 -23 93
-51 104 -41 8 9 -41 54 -63 58 -11 2 4 5 34 6 46 1 57 -3 68 -20 12 -19 79
-55 88 -46 7 7 -28 49 -50 58 -15 7 -6 8 34 4 38 -3 66 -13 95 -34 45 -32 151
-55 143 -30 -3 9 -17 13 -36 11 -29 -3 -65 10 -122 43 -25 15 -25 15 15 15 22
0 56 -4 75 -9 46 -10 122 0 128 18 4 11 -2 12 -24 7 -16 -4 -24 -3 -19 1 6 4
11 19 10 32 0 19 -6 25 -30 28 l-30 4 23 -21 c13 -12 21 -24 18 -27 -2 -3 -15
4 -27 16 -18 17 -20 23 -9 36 7 8 10 18 7 21 -10 10 -39 -5 -32 -16 3 -5 1
-10 -4 -10 -6 0 -11 6 -11 14 0 22 -19 30 -36 15 -8 -7 -14 -25 -12 -43 2 -42
-8 -56 -39 -56 -25 0 -26 1 -8 20 10 11 15 26 11 35 -8 21 -40 15 -42 -8 -1
-12 -1 -13 3 -2 6 21 23 19 23 -3 0 -22 -39 -42 -79 -42 -28 0 -28 0 24 55 31
32 62 55 74 55 12 0 21 6 21 15 0 33 -39 11 -99 -55z m170 -70 c12 0 11 2 -1
11 -12 9 -11 10 7 6 12 -3 24 0 26 6 2 6 6 3 10 -7 5 -11 3 -15 -5 -10 -8 5
-9 2 -5 -9 5 -14 2 -16 -21 -11 -39 10 -62 23 -62 36 0 6 8 4 18 -5 10 -10 25
-17 33 -17z"/>
<path d="M603 2000 c-4 -13 -14 -20 -30 -20 -21 0 -24 -4 -19 -24 4 -17 0 -26
-17 -33 l-22 -11 27 -10 c26 -11 67 -10 188 3 l65 7 -53 -32 c-38 -22 -68 -32
-103 -33 -27 -1 -48 -6 -47 -12 5 -19 84 -3 150 31 37 18 81 34 97 34 16 0 33
5 36 10 4 6 -7 10 -27 10 -34 0 -78 23 -78 41 0 14 28 11 33 -3 4 -8 6 -7 6 3
1 18 -25 33 -40 23 -13 -8 -11 -38 3 -52 9 -9 6 -12 -14 -12 -15 0 -28 6 -31
13 -3 9 -9 8 -23 -4 -22 -20 -86 -31 -81 -15 2 6 17 11 33 11 24 0 28 4 26 21
-2 13 4 24 15 28 14 6 16 5 6 -5 -18 -18 -16 -30 3 -22 22 8 15 67 -9 71 -10
2 -24 -4 -31 -14 -12 -15 -13 -15 -19 0 -9 22 -38 20 -44 -4z m37 -15 c0 -7
-52 -56 -56 -53 -9 10 8 38 23 38 9 0 13 6 10 14 -4 10 -1 13 9 9 7 -3 14 -6
14 -8z m43 -2 c-7 -3 -13 -11 -13 -19 0 -8 -7 -14 -15 -14 -8 0 -24 -9 -35
-20 -11 -11 -25 -20 -31 -20 -10 0 14 24 71 69 14 10 27 17 30 14 3 -3 -1 -8
-7 -10z"/>
<path d="M921 1945 c30 -24 54 -35 77 -35 30 0 32 2 22 21 -14 25 -68 49 -111
49 l-32 0 44 -35z"/>
<path d="M728 1638 c7 -7 12 -40 12 -78 0 -38 -5 -71 -12 -78 -9 -9 -7 -12 13
-12 24 0 24 1 21 85 -2 52 0 85 6 85 45 0 57 -48 20 -74 -22 -15 -22 -16 -2
-16 27 0 44 19 44 50 0 37 -18 50 -69 50 -35 0 -42 -3 -33 -12z"/>
<path d="M1722 1630 c-8 -21 -57 -127 -70 -152 -2 -5 5 -8 16 -8 11 0 20 6 19
13 -1 42 3 47 43 47 40 0 46 -7 41 -47 -1 -8 9 -13 25 -13 23 0 25 2 13 16 -8
9 -28 51 -45 93 -30 71 -33 74 -42 51z m26 -57 c10 -31 10 -33 -14 -33 -26 0
-31 18 -13 52 12 23 13 23 27 -19z"/>
<path d="M1392 1618 c-7 -7 -12 -22 -12 -33 0 -23 42 -87 79 -120 l23 -20 43
47 c68 71 72 129 9 136 -18 3 -33 -2 -42 -15 -12 -17 -14 -17 -23 0 -11 20
-59 23 -77 5z m148 -45 c0 -7 -13 -27 -29 -45 l-29 -32 -31 31 c-47 48 -42 60
29 60 43 0 60 -4 60 -14z"/>
<path d="M1964 1620 c-12 -5 -31 -22 -43 -39 l-22 -31 21 -30 c20 -28 49 -50
66 -50 5 0 -9 18 -31 40 -39 39 -39 39 -19 62 10 13 28 31 39 40 22 19 20 21
-11 8z"/>
<path d="M2046 1615 c-23 -23 -20 -33 19 -68 38 -33 44 -51 20 -61 -21 -8 -43
2 -49 22 -2 10 -4 6 -3 -8 2 -20 8 -26 34 -28 27 -3 35 1 45 24 12 25 10 29
-25 58 -46 39 -49 60 -7 54 19 -3 29 -1 27 6 -6 18 -43 18 -61 1z"/>
<path d="M2544 1621 c-12 -12 -1 -17 27 -13 l31 5 -4 -72 c-3 -70 -3 -71 22
-71 19 0 21 3 12 12 -7 7 -12 38 -12 71 0 58 0 58 28 56 15 -2 27 1 27 5 0 9
-123 15 -131 7z"/>
<path d="M890 1561 c3 -32 12 -66 19 -75 20 -24 77 -21 95 6 20 28 22 128 4
128 -9 0 -12 -17 -10 -59 3 -52 1 -61 -18 -71 -48 -26 -76 11 -68 90 3 31 0
40 -12 40 -13 0 -15 -10 -10 -59z"/>
<path d="M1088 1541 c3 -62 0 -81 -13 -95 -13 -13 -14 -16 -2 -16 27 0 35 24
39 108 2 68 0 82 -12 82 -12 0 -14 -14 -12 -79z"/>
<path d="M1199 1544 c-30 -63 -33 -74 -18 -74 11 0 19 9 21 23 2 18 9 22 38
22 29 0 36 -4 38 -22 2 -14 10 -23 21 -23 14 0 12 11 -18 75 -19 41 -38 75
-41 74 -3 0 -21 -34 -41 -75z m55 20 c10 -26 7 -34 -14 -34 -21 0 -24 8 -14
34 8 20 20 20 28 0z"/>
<path d="M1865 1545 c0 -60 3 -75 15 -75 12 0 15 15 15 75 0 60 -3 75 -15 75
-12 0 -15 -15 -15 -75z"/>
<path d="M2175 1545 c0 -64 3 -75 17 -75 14 0 16 7 11 35 l-6 35 48 0 48 0 -6
-35 c-5 -28 -3 -35 11 -35 15 0 17 10 14 75 -3 51 -8 75 -16 75 -8 0 -11 -12
-8 -34 l4 -34 -47 0 -47 1 4 34 c3 25 0 33 -12 33 -12 0 -15 -14 -15 -75z"/>
<path d="M2399 1544 c-31 -65 -33 -74 -17 -74 13 0 18 8 18 26 0 23 3 25 38
22 30 -2 38 -7 40 -25 2 -14 10 -23 20 -23 15 0 12 11 -18 75 -19 41 -37 75
-40 74 -3 0 -21 -34 -41 -75z m61 -1 c0 -7 -9 -13 -20 -13 -22 0 -23 3 -13 39
6 23 7 23 20 6 7 -11 13 -25 13 -32z"/>
<path d="M1170 1381 c-12 -24 -6 -41 15 -41 22 0 27 18 11 41 l-14 21 -12 -21z"/>
<path d="M1384 1394 c-13 -5 -6 -54 7 -54 5 0 9 14 9 30 0 17 -1 30 -2 29 -2
0 -8 -3 -14 -5z"/>
<path d="M1505 1391 c-3 -6 2 -11 11 -11 16 0 16 -1 -1 -20 -18 -19 -17 -20 2
-20 15 0 20 6 19 27 -1 27 -19 42 -31 24z"/>
<path d="M1594 1386 c-8 -22 3 -49 19 -43 6 2 12 14 12 27 0 27 -22 39 -31 16z"/>
<path d="M1685 1390 c-3 -5 -1 -10 6 -10 10 0 10 -3 1 -12 -18 -18 -14 -28 11
-27 12 0 16 3 9 6 -10 4 -10 8 -2 19 12 13 6 34 -10 34 -5 0 -12 -4 -15 -10z"/>
<path d="M1771 1382 c-15 -27 -14 -29 9 -35 26 -7 31 3 15 32 -12 24 -13 24
-24 3z"/>
<path d="M567 1363 c73 -2 193 -2 266 0 72 1 13 3 -133 3 -146 0 -205 -2 -133
-3z"/>
<path d="M2093 1363 c86 -2 228 -2 315 0 86 1 15 3 -158 3 -173 0 -244 -2
-157 -3z"/>
<path d="M1955 1241 c-17 -17 -43 -33 -60 -37 l-30 -7 23 26 c14 14 19 27 14
31 -10 6 -52 -39 -52 -55 0 -5 -15 -9 -32 -9 l-33 0 30 24 c23 19 27 27 19 36
-9 9 -21 4 -50 -23 -22 -18 -54 -37 -72 -40 l-34 -7 26 31 c30 36 33 52 9 47
-10 -2 -25 -18 -34 -35 -9 -18 -30 -46 -48 -62 -38 -36 -40 -73 -10 -164 22
-65 88 -187 101 -187 12 0 10 6 -21 55 -30 48 -85 174 -78 181 2 2 34 -39 71
-92 37 -52 70 -93 73 -90 3 2 -19 39 -48 82 -63 91 -68 106 -30 93 79 -29 116
-54 116 -79 0 -26 28 -40 40 -20 16 25 -58 78 -148 107 -88 28 -88 28 -82 58
3 17 14 38 25 47 19 16 23 16 62 -2 41 -18 64 -18 53 1 -4 5 -13 9 -21 9 -8 0
-14 5 -14 10 0 16 56 12 70 -6 20 -23 48 -36 55 -25 3 6 -7 17 -22 26 -27 16
-25 16 47 11 63 -5 72 -4 58 7 -15 12 -13 15 17 26 40 14 68 38 60 52 -10 14
-18 11 -50 -20z"/>
<path d="M1050 1244 c0 -8 15 -21 33 -28 17 -7 41 -17 52 -21 18 -7 18 -9 3
-12 -22 -5 -24 -23 -4 -23 8 0 26 4 41 10 15 6 40 6 63 1 20 -5 30 -9 21 -10
-9 -1 -22 -8 -29 -16 -19 -23 12 -20 43 5 17 14 39 20 69 19 l43 -1 -32 -9
c-34 -10 -45 -29 -18 -29 9 0 32 7 52 15 47 20 71 11 90 -32 15 -37 8 -52 -25
-53 -25 0 -172 -53 -172 -61 0 -12 -1 -12 74 16 37 14 69 25 72 25 3 0 -22
-19 -57 -42 -35 -24 -65 -50 -67 -58 -3 -8 13 0 34 16 95 74 101 73 39 -8 -56
-72 -94 -96 -87 -55 4 24 -25 11 -34 -15 -8 -27 -2 -30 38 -23 29 5 46 22 103
97 38 50 71 86 73 80 5 -15 -41 -111 -81 -169 -20 -29 -30 -53 -24 -53 26 0
122 185 133 257 7 50 -12 88 -52 103 -13 5 -24 16 -24 23 0 20 -39 67 -56 67
-25 0 -15 -28 19 -54 l32 -26 -42 0 c-32 0 -46 5 -61 25 -22 28 -69 52 -80 41
-4 -5 9 -21 28 -38 l35 -30 -35 7 c-21 5 -46 20 -62 39 -14 17 -30 28 -34 23
-4 -4 3 -18 16 -32 13 -14 18 -25 11 -25 -18 0 -86 36 -100 54 -17 20 -41 21
-41 0z"/>
<path d="M2353 1171 c-23 -4 -50 -15 -61 -24 -28 -26 -88 -47 -129 -46 -30 0
-34 2 -18 8 24 10 60 49 53 57 -9 8 -88 -35 -95 -51 -4 -11 -20 -15 -57 -14
-43 0 -47 2 -26 10 14 5 31 18 38 29 10 17 10 20 -6 20 -34 0 -82 -22 -93 -41
-8 -16 -22 -19 -97 -20 -48 0 -109 -4 -137 -9 -49 -7 -48 -7 30 -10 44 -2 95
-2 113 -1 25 2 39 -4 61 -28 26 -28 76 -50 87 -39 12 13 -13 42 -50 58 l-41
19 52 0 c42 1 53 -2 58 -18 6 -19 70 -51 101 -51 21 0 5 26 -32 50 l-29 19 72
-2 c71 -3 103 -16 103 -43 0 -17 -17 -18 -23 -1 -3 7 -6 5 -6 -5 -1 -12 6 -18
19 -18 28 0 36 27 15 50 -17 19 -17 20 1 20 35 0 48 -17 46 -58 -2 -25 2 -41
10 -44 26 -8 82 -1 86 12 3 9 -3 11 -22 8 -14 -3 -26 -1 -26 4 0 5 -5 6 -12 2
-7 -4 -8 -3 -4 4 4 6 13 9 21 6 8 -3 25 6 40 22 14 15 29 24 33 20 4 -4 -4
-16 -17 -27 l-23 -19 32 0 c29 0 32 2 27 26 -3 20 0 28 14 31 11 3 19 9 19 13
0 17 -39 21 -136 14 l-99 -6 40 28 c31 22 50 28 88 27 34 -1 47 3 47 13 0 15
-3 15 -67 5z m35 -83 c-2 -6 -10 -14 -18 -16 -7 -3 -10 0 -6 7 11 17 -15 13
-36 -6 -10 -9 -18 -11 -18 -5 0 6 8 16 18 21 24 14 65 14 60 -1z m-5 -40 c-9
-10 -20 -18 -25 -18 -4 0 -8 8 -8 18 -1 16 -1 16 -11 0 -5 -10 -15 -18 -21
-18 -6 0 -4 8 5 18 8 9 29 17 46 17 28 0 28 -1 14 -17z"/>
<path d="M580 1161 c0 -7 20 -11 53 -11 28 0 63 -7 77 -15 14 -8 39 -22 55
-30 29 -15 28 -16 -40 -9 -96 10 -186 7 -199 -6 -8 -8 -4 -12 12 -17 19 -4 22
-11 18 -29 -5 -19 -2 -24 13 -24 11 0 28 -3 38 -6 15 -6 14 -3 -4 15 -13 12
-23 26 -23 32 0 6 13 -2 30 -17 l30 -29 -23 -12 c-21 -11 -21 -12 -3 -19 13
-5 23 -2 31 10 11 14 13 15 19 1 3 -8 15 -15 26 -15 23 0 41 31 22 38 -7 2
-19 10 -27 18 -9 9 -16 10 -20 4 -3 -6 0 -13 9 -16 8 -3 17 -12 20 -20 3 -8
-11 -2 -31 13 -35 27 -35 28 -13 31 l23 4 -23 11 c-39 20 -36 36 3 27 42 -9
57 -18 57 -32 0 -6 -8 -4 -18 5 -10 10 -24 17 -31 17 -7 0 1 -11 17 -25 37
-31 38 -31 46 -1 6 24 8 24 123 24 65 0 109 -4 98 -8 -11 -4 -29 -17 -39 -29
-19 -21 -19 -21 15 -21 35 0 99 32 99 50 0 6 25 10 58 9 57 -1 57 -1 19 -11
-23 -6 -45 -22 -59 -41 l-22 -30 30 7 c49 13 93 37 99 56 5 16 20 18 127 19
66 0 123 3 126 6 3 3 -61 5 -142 5 -123 0 -148 3 -153 15 -7 20 -48 41 -98 51
-38 7 -39 6 -25 -11 8 -10 29 -26 45 -37 l30 -18 -52 0 c-41 0 -54 4 -62 19
-9 17 -77 51 -101 51 -21 0 16 -40 50 -54 l35 -15 -35 0 c-50 -1 -109 17 -152
46 -41 27 -158 46 -158 24z"/>
<path d="M2192 1018 c31 -35 65 -64 77 -66 32 -5 25 18 -8 29 -17 6 -46 30
-66 55 -20 24 -41 44 -47 44 -6 0 14 -28 44 -62z"/>
<path d="M764 1055 c-9 -23 4 -47 23 -43 10 2 19 12 21 23 4 20 3 20 -11 1
-10 -14 -16 -16 -21 -7 -4 6 -2 18 4 26 9 11 9 15 1 15 -6 0 -14 -7 -17 -15z"/>
<path d="M833 1025 c-25 -28 -52 -47 -72 -51 -32 -7 -39 -18 -20 -29 14 -9 77
36 117 85 45 55 25 51 -25 -5z"/>
<path d="M1174 1036 c-37 -37 -42 -57 -18 -77 11 -9 20 -10 32 -2 20 12 22 35
4 41 -7 2 -10 -2 -6 -11 8 -21 -11 -30 -26 -12 -11 13 -6 22 29 55 23 22 37
40 30 40 -6 0 -26 -15 -45 -34z"/>
<path d="M1879 1035 c17 -20 31 -40 31 -45 0 -13 -19 -22 -31 -14 -8 4 -7 9 2
15 7 4 10 11 6 15 -12 12 -30 -13 -23 -31 3 -10 15 -15 28 -13 35 5 36 44 2
79 -40 41 -52 36 -15 -6z"/>
<path d="M1262 1044 c-12 -8 -20 -20 -17 -25 9 -14 19 -10 38 16 20 28 12 32
-21 9z"/>
<path d="M1721 981 c30 -27 56 -47 59 -44 7 7 -89 93 -103 93 -6 0 14 -22 44
-49z"/>
<path d="M2066 972 c-14 -17 -23 -18 -58 -10 -54 12 -57 6 -8 -16 26 -11 42
-26 46 -42 3 -13 10 -24 14 -24 10 0 43 50 33 50 -5 0 -3 4 4 8 8 5 8 13 -1
30 -12 22 -12 23 -30 4z"/>
<path d="M946 964 c-4 -10 -1 -21 6 -26 10 -6 10 -8 -2 -8 -12 0 -12 -2 -2 -9
8 -4 14 -12 15 -17 0 -5 7 -15 14 -22 11 -12 15 -9 24 16 7 21 20 33 50 42 22
8 43 18 46 23 4 7 -1 8 -13 3 -43 -17 -82 -18 -106 -2 -24 16 -26 16 -32 0z"/>
<path d="M1236 964 c-20 -19 -12 -34 18 -34 19 0 22 4 18 25 -5 29 -14 31 -36
9z"/>
<path d="M2147 943 c-8 -10 -19 -30 -22 -46 -4 -15 -11 -30 -16 -33 -5 -3 -9
-10 -9 -16 0 -21 29 13 35 42 8 34 29 54 50 46 20 -7 20 -46 0 -46 -18 0 -20
16 -2 23 7 3 5 6 -5 6 -12 1 -18 -6 -18 -19 0 -15 7 -20 24 -20 33 0 44 34 20
61 -21 24 -36 24 -57 2z"/>
<path d="M826 934 c-27 -27 -12 -64 25 -64 17 0 32 23 22 34 -12 12 -22 6 -16
-10 4 -12 2 -15 -8 -12 -21 7 -23 44 -3 52 22 8 37 -6 67 -66 24 -48 24 -48 3
-48 -11 0 -36 9 -54 20 -38 23 -43 24 -39 8 1 -7 -11 -14 -28 -18 -17 -3 -31
-12 -33 -23 -5 -24 29 -22 61 3 21 17 30 18 54 9 l28 -11 -27 -14 c-30 -16
-38 -44 -12 -44 9 0 28 13 42 28 15 16 42 34 61 40 l35 12 -24 -25 c-13 -14
-20 -28 -16 -32 11 -12 40 11 56 45 8 17 25 35 38 41 21 10 22 9 16 -15 -10
-40 17 -26 39 20 18 38 19 38 64 33 31 -3 42 -2 34 6 -20 20 -82 7 -161 -34
-44 -22 -87 -38 -95 -35 -8 3 -23 22 -32 43 -33 73 -64 91 -97 57z"/>
<path d="M1471 925 c-1 -25 -55 -140 -70 -150 -7 -4 -18 -1 -26 5 -20 16 -32
-14 -15 -35 27 -32 78 27 106 123 9 29 13 58 11 65 -3 6 -6 3 -6 -8z"/>
<path d="M1620 909 c0 -35 31 -116 56 -142 29 -32 47 -31 52 2 3 19 0 22 -16
17 -25 -8 -48 18 -72 85 -11 30 -19 47 -20 38z"/>
<path d="M1857 913 c-14 -13 -6 -23 11 -14 31 17 70 2 77 -29 7 -33 30 -56 40
-41 3 6 1 20 -5 32 -11 19 -10 20 10 9 12 -6 28 -27 36 -46 14 -34 38 -53 51
-40 3 3 -2 16 -13 27 -19 22 -19 22 6 14 14 -4 38 -20 53 -36 27 -27 67 -40
67 -20 0 5 -14 18 -31 29 l-32 20 32 7 c23 5 37 2 50 -9 10 -9 27 -16 39 -16
32 0 16 30 -19 37 -16 3 -26 9 -23 14 8 14 -4 11 -31 -7 -36 -24 -101 -11
-182 37 -63 36 -119 50 -136 32z"/>
<path d="M1578 905 c-7 -12 7 -107 21 -132 5 -10 32 -40 60 -68 50 -48 65 -85
36 -85 -8 0 -15 5 -15 10 0 6 5 10 12 10 9 0 9 3 1 11 -13 13 -33 4 -33 -15 0
-8 7 -19 15 -26 12 -10 18 -10 30 0 27 23 17 54 -36 105 -63 62 -71 76 -78
145 -3 30 -9 51 -13 45z"/>
<path d="M1790 891 c0 -11 -1 -24 -2 -28 -1 -5 6 -9 15 -11 22 -4 23 31 2 48
-13 10 -15 9 -15 -9z"/>
<path d="M1512 879 c-5 -72 -16 -94 -84 -160 -37 -37 -68 -71 -68 -77 0 -23
13 -42 30 -42 21 0 44 25 35 40 -8 13 -35 13 -35 -1 0 -5 5 -7 11 -3 7 4 10 1
7 -6 -8 -25 -28 -22 -28 3 0 18 17 39 60 77 65 56 85 98 77 160 -3 26 -4 28
-5 9z"/>
<path d="M1185 800 c-20 -21 -36 -29 -59 -27 -17 1 -31 -2 -31 -8 0 -5 10 -10
22 -10 21 1 21 -1 6 -17 -8 -10 -24 -20 -34 -23 -20 -7 -27 -35 -9 -35 6 0 24
15 40 33 28 30 29 31 30 10 0 -13 4 -23 9 -23 11 0 21 25 21 55 0 13 11 32 25
43 14 11 25 23 25 26 0 14 -18 4 -45 -24z"/>
<path d="M1863 802 c18 -18 27 -39 27 -59 0 -40 18 -53 22 -16 2 22 9 29 31
31 38 5 34 22 -6 22 -23 0 -41 8 -57 25 -13 14 -28 25 -34 25 -5 0 2 -13 17
-28z"/>
<path d="M1289 794 c29 -37 27 -62 -6 -75 -31 -12 -63 -37 -63 -51 0 -16 34
-8 57 14 l23 22 -11 -32 c-6 -18 -26 -41 -45 -53 -30 -18 -54 -46 -54 -63 0
-16 31 -3 49 20 l21 27 0 -37 c0 -24 -5 -39 -15 -43 -25 -9 -49 -63 -35 -77
15 -14 50 26 50 57 0 21 1 21 26 -4 25 -26 26 -27 9 -59 -21 -41 -14 -65 15
-50 13 7 20 21 20 40 0 22 5 30 18 30 10 0 3 9 -20 22 -58 34 -66 65 -38 157
13 42 25 88 28 104 4 28 -20 77 -39 77 -6 0 -1 -12 10 -26z"/>
<path d="M1770 801 c-15 -29 -12 -61 10 -133 27 -87 26 -133 -5 -163 -13 -14
-30 -25 -37 -25 -10 0 -10 -2 -1 -8 6 -4 13 -23 15 -42 2 -24 9 -36 21 -38 20
-4 23 24 6 62 -10 20 -8 28 8 45 l19 21 13 -35 c7 -19 19 -35 27 -35 23 0 16
44 -11 70 -18 17 -25 34 -25 59 l1 36 14 -26 c18 -34 45 -45 45 -19 0 10 -15
31 -34 47 -19 15 -39 41 -45 56 l-11 29 26 -21 c15 -11 30 -18 35 -15 15 9 -9
41 -41 54 -34 14 -39 42 -14 78 8 12 11 22 5 22 -6 0 -15 -9 -21 -19z"/>
<path d="M1944 718 c16 -21 32 -35 37 -33 11 7 0 35 -14 35 -6 0 -19 8 -31 18
-12 11 -9 3 8 -20z"/>
<path d="M2000 721 c0 -12 6 -21 16 -21 9 0 14 7 12 17 -5 25 -28 28 -28 4z"/>
<path d="M1020 716 c0 -21 21 -31 30 -15 5 7 6 17 4 21 -9 14 -34 9 -34 -6z"/>
<path d="M2043 709 c-15 -15 7 -71 26 -67 25 5 25 28 0 28 -18 0 -20 3 -11 12
14 14 16 38 4 38 -4 0 -13 -5 -19 -11z"/>
<path d="M976 701 c-8 -12 21 -34 34 -26 8 5 8 11 -1 21 -13 16 -25 18 -33 5z"/>
<path d="M1932 663 c5 -25 28 -28 28 -4 0 12 -6 21 -16 21 -9 0 -14 -7 -12
-17z"/>
<path d="M1991 667 c-14 -17 3 -41 23 -34 9 4 16 13 16 21 0 19 -26 28 -39 13z"/>
<path d="M960 650 c0 -13 7 -20 20 -20 24 0 27 25 4 34 -23 9 -24 8 -24 -14z"/>
<path d="M1025 661 c-9 -16 3 -31 26 -31 14 0 19 6 17 17 -4 20 -33 29 -43 14z"/>
<path d="M1097 664 c-14 -14 -7 -25 13 -22 12 2 21 8 21 13 0 12 -24 18 -34 9z"/>
<path d="M1500 631 c0 -12 6 -21 16 -21 9 0 14 7 12 17 -5 25 -28 28 -28 4z"/>
<path d="M1080 610 c0 -19 20 -27 33 -13 8 7 -11 33 -24 33 -5 0 -9 -9 -9 -20z"/>
<path d="M1945 620 c-3 -5 -4 -14 0 -20 8 -13 35 -1 35 16 0 16 -26 19 -35 4z"/>
<path d="M2038 624 c-11 -10 3 -34 19 -34 8 0 13 7 11 17 -3 18 -20 27 -30 17z"/>
<path d="M974 609 c-11 -18 13 -34 31 -19 8 7 15 16 15 21 0 13 -38 11 -46 -2z"/>
<path d="M1987 596 c-7 -16 1 -26 20 -26 7 0 13 9 13 20 0 23 -25 27 -33 6z"/>
<path d="M1032 583 c2 -10 10 -18 18 -18 22 0 18 29 -3 33 -14 3 -18 -1 -15
-15z"/>
<path d="M1470 585 c0 -8 9 -15 20 -15 11 0 20 7 20 15 0 8 -9 15 -20 15 -11
0 -20 -7 -20 -15z"/>
<path d="M1530 579 c0 -25 33 -22 38 4 2 12 -3 17 -17 17 -15 0 -21 -6 -21
-21z"/>
<path d="M1491 546 c-9 -10 -9 -16 -1 -21 13 -8 42 14 34 26 -8 13 -20 11 -33
-5z"/>
<path d="M1576 552 c-8 -14 20 -46 32 -38 7 4 12 11 12 16 0 13 -38 32 -44 22z"/>
<path d="M1534 525 c-3 -8 -3 -19 1 -25 10 -16 35 7 28 26 -7 18 -22 18 -29
-1z"/>
</g>
</svg>
